{"title":"Mad.Max.Fury.Road.2015.TS.XVID.AC3.HQ.Hive-CM8","uid":11979051,"size":1702227532,"categoryP":"video","categoryS":"movies","magnet":"?xt=urn:btih:ec9da3b6006f53431f20d83b993940972f812045&amp;dn=Mad.Max.Fury.Road.2015.TS.XVID.AC3.HQ.Hive-CM8&amp;tr=udp%3A%2F%2Ftracker.openbittorrent.com%3A80&amp;tr=udp%3A%2F%2Fopen.demonii.com%3A1337&amp;tr=udp%3A%2F%2Ftracker.coppersurfer.tk%3A6969&amp;tr=udp%3A%2F%2Fexodus.desync.com%3A6969","seeders":29,"leechers":6,"uploader":"xxxlavalxxx","files":4,"time":1433139447,"description":" &lt;a href=&quot;http://extraimago.com/image/NXX&quot; rel=&quot;nofollow&quot; target=&quot;_NEW&quot;&gt;http://extraimago.com/image/NXX&lt;/a&gt;\n &lt;a href=&quot;\nhttp://www.imdb.com/title/tt1392190/&quot; rel=&quot;nofollow&quot; target=&quot;_NEW&quot;&gt;\nhttp://www.imdb.com/title/tt1392190/&lt;/a&gt;\n\n\nIn a stark desert landscape where humanity is broken, two rebels just might be able to restore order: Max, a man of action and of few words, and Furiosa, a woman of action who is looking to make it back to her childhood homeland.\n\nDirector: George Miller\nWriters: George Miller, Brendan McCarthy\nStars: Tom Hardy, Charlize Theron, Nicholas Hoult\nGenres: Action | Adventure | Sci-Fi | Thriller\nCountry: Australia | USA\nLanguage: English\n\n\nMad.Max.Fury.Road.2015.TS.XVID.AC3.HQ.Hive-CM8\n\nThx Hive\n\nCM8 Doing It Right The First Time\n\nSources:\n\nVideo: 720P Source Video - iNCOMiNG\nAudio: Mr.Seen-Simple-Jiinx\nthx m8s\n\nNotes:\n\nhad the 2 week old sd source already prepared which i had invested encoding for hours in case audio drops, could have done that version 2 days ago\nbut when i heard a 720p version is out now too, i decided not to bother you with that instead i got the 720er file and postponed for san andreas release first\n\nlast night i had time to work on that new 720p file, its a lot better than the avi the others used, its not jerky anymore, but came with the usual problems\nvideo had lots of noise in it, had pulsating flicker and the colours are off a lot, mostly reddish\n\nEncoding:\nremoved the flickering, removed the noise in the video and ran extensive filters for the colouring, wasnt easy but doable\nadded brightness, fixed contrast, black base, white base, rgb,saturation,yuv, so we get a nice colouring now the movie has even a blue sky\n\nI havent added additional sharpness to either of the both versions, cause it totally ruins fast action scenes,which this movie has all the time, its perfect as it is\n\nfor the audio i used jiinx line, which was sweet but needed my usual cleaning process\nthe audio from the sd version didnt fit the slightest to 720p cam so i had to resync the whole movie in the usual lipsync matter\n\nall in all took me good 10h but its perfect now\nthis will do me till retail\n\ngot very nice\nenjoy\n\nVideo: 720x400 @bitrate 1700 2pass\nAudio: English Line Stereo 2.0\nSample: yes included &lt;a href=&quot;\nhttp://www.imdb.com/title/tt1392190/&quot; rel=&quot;nofollow&quot; target=&quot;_NEW&quot;&gt;\nhttp://www.imdb.com/title/tt1392190/&lt;/a&gt;\n\nGeneral\nComplete name: Mad.Max.Fury.Road.2015.TS.XVID.AC3.HQ.Hive-CM8.avi\nFormat: AVI\nFormat/Info: Audio Video Interleave\nFile size: 1.56 GiB\nDuration: 1h 53mn\nOverall bit rate: 1 964 Kbps\nWriting application: Nandub v1.0rc2\nWriting library: Nandub build 1853/release\n\nVideo\nID: 0\nFormat: MPEG-4 Visual\nFormat profile: Advanced Simple@L5\nFormat settings, BVOP: 2\nFormat settings, QPel: Yes\nFormat settings, GMC: No warppoints\nFormat settings, Matrix: Default (H.263)\nMuxing mode: Packed bitstream\nCodec ID: XVID\nCodec ID/Hint: XviD\nDuration: 1h 53mn\nBit rate: 1 698 Kbps\nWidth: 720 pixels\nHeight: 400 pixels\nDisplay aspect ratio: 16:9\nFrame rate: 30.000 fps\nColor space: YUV\nChroma subsampling: 4:2:0\nBit depth: 8 bits\nScan type: Progressive\nCompression mode: Lossy\nBits/(Pixel*Frame): 0.197\nStream size: 1.35 GiB (86%)\nWriting library: XviD 1.2.1 (UTC 2008-12-04)\n\nAudio\nID: 1\nFormat: AC-3\nFormat/Info: Audio Coding 3\nMode extension: CM (complete main)\nFormat settings, Endianness: Big\nCodec ID: 2000\nDuration: 1h 53mn\nBit rate mode: Constant\nBit rate: 256 Kbps\nChannel(s): 2 channels\nChannel positions: Front: L R\nSampling rate: 48.0 KHz\nBit depth: 16 bits\nCompression mode: Lossy\nStream size: 207 MiB (13%)\nAlignment: Split accross interleaves\nInterleave, duration: 34 ms (1.01 video frame)\nInterleave, preload duration: 500 ms\n &lt;a href=&quot;\nhttp://extraimago.com/image/TQu&quot; rel=&quot;nofollow&quot; target=&quot;_NEW&quot;&gt;\nhttp://extraimago.com/image/TQu&lt;/a&gt; &lt;a href=&quot;\nhttp://extraimago.com/image/TQv&quot; rel=&quot;nofollow&quot; target=&quot;_NEW&quot;&gt;\nhttp://extraimago.com/image/TQv&lt;/a&gt; &lt;a href=&quot;\nhttp://extraimago.com/image/TQA&quot; rel=&quot;nofollow&quot; target=&quot;_NEW&quot;&gt;\nhttp://extraimago.com/image/TQA&lt;/a&gt; &lt;a href=&quot;\nhttp://extraimago.com/image/TQW&quot; rel=&quot;nofollow&quot; target=&quot;_NEW&quot;&gt;\nhttp://extraimago.com/image/TQW&lt;/a&gt; &lt;a href=&quot;\nhttp://extraimago.com/image/TQf&quot; rel=&quot;nofollow&quot; target=&quot;_NEW&quot;&gt;\nhttp://extraimago.com/image/TQf&lt;/a&gt; &lt;a href=&quot;\nhttp://extraimago.com/image/TR8&quot; rel=&quot;nofollow&quot; target=&quot;_NEW&quot;&gt;\nhttp://extraimago.com/image/TR8&lt;/a&gt; &lt;a href=&quot;\nhttp://extraimago.com/image/TRa&quot; rel=&quot;nofollow&quot; target=&quot;_NEW&quot;&gt;\nhttp://extraimago.com/image/TRa&lt;/a&gt; &lt;a href=&quot;\nhttp://extraimago.com/image/TRw&quot; rel=&quot;nofollow&quot; target=&quot;_NEW&quot;&gt;\nhttp://extraimago.com/image/TRw&lt;/a&gt;","torrent":{"xt":"urn:btih:ec9da3b6006f53431f20d83b993940972f812045","amp;dn":"Mad.Max.Fury.Road.2015.TS.XVID.AC3.HQ.Hive-CM8","amp;tr":["udp%3A%2F%2Ftracker.openbittorrent.com%3A80","udp%3A%2F%2Fopen.demonii.com%3A1337","udp%3A%2F%2Ftracker.coppersurfer.tk%3A6969","udp%3A%2F%2Fexodus.desync.com%3A6969"],"infoHash":"ec9da3b6006f53431f20d83b993940972f812045","infoHashBuffer":{"type":"Buffer","data":[236,157,163,182,0,111,83,67,31,32,216,59,153,57,64,151,47,129,32,69]},"announce":[],"urlList":[]}}